<?xml version="1.0" encoding="UTF-8" ?>
<!DOCTYPE svg PUBLIC "-//W3C//DTD SVG 1.1//EN" "http://www.w3.org/Graphics/SVG/1.1/DTD/svg11.dtd">
<svg width="96pt" height="96pt" viewBox="0 0 96 96" version="1.1" xmlns="http://www.w3.org/2000/svg">
<g id="#00bcd4ff">
<path fill="#00bcd4" opacity="1.00" d=" M 40.06 9.94 C 43.87 4.51 52.99 4.85 56.36 10.56 C 59.83 15.53 57.39 22.86 51.99 25.29 C 49.38 26.03 46.62 26.02 44.01 25.29 C 38.31 22.78 36.05 14.85 40.06 9.94 Z" />
<path fill="#00bcd4" opacity="1.00" d=" M 4.89 30.06 C 1.77 23.85 7.05 15.68 13.99 16.04 C 20.05 15.77 24.79 21.83 23.99 27.65 C 23.18 30.24 21.72 32.61 19.66 34.40 C 14.66 37.59 7.18 35.71 4.89 30.06 Z" />
<path fill="#00bcd4" opacity="1.00" d=" M 68.07 39.90 C 69.51 33.69 77.08 29.90 82.73 33.21 C 88.48 36.06 89.75 44.60 85.09 49.00 C 81.00 53.45 73.20 52.67 69.76 47.80 C 68.38 45.41 67.89 42.64 68.07 39.90 Z" />
<path fill="#00bcd4" opacity="1.00" d=" M 66.17 68.03 C 72.49 66.94 78.84 72.62 77.91 79.08 C 77.44 85.59 69.77 90.01 63.90 87.10 C 58.39 84.82 56.39 77.47 59.52 72.51 C 61.23 70.37 63.57 68.85 66.17 68.03 Z" />
<path fill="#00bcd4" opacity="1.00" d=" M 12.09 80.85 C 12.59 74.95 18.82 70.89 24.49 72.15 C 26.99 73.18 29.21 74.82 30.81 77.01 C 33.92 82.64 30.57 90.59 24.12 91.73 C 17.74 93.43 11.07 87.35 12.09 80.85 Z" />
</g>
<g id="#cfd8dcff">
<path fill="#cfd8dc" opacity="1.00" d=" M 44.01 25.29 C 46.62 26.02 49.38 26.03 51.99 25.29 C 52.01 28.37 52.00 31.46 51.99 34.55 C 49.35 34.07 46.65 34.06 44.01 34.54 C 43.99 31.46 43.99 28.37 44.01 25.29 Z" />
<path fill="#cfd8dc" opacity="1.00" d=" M 19.66 34.40 C 21.72 32.61 23.18 30.24 23.99 27.65 C 28.96 30.86 33.93 34.05 38.89 37.26 C 36.98 39.20 35.49 41.53 34.49 44.06 C 29.58 40.78 24.59 37.63 19.66 34.40 Z" />
<path fill="#cfd8dc" opacity="1.00" d=" M 60.39 41.36 C 62.96 40.92 65.52 40.42 68.07 39.90 C 67.89 42.64 68.38 45.41 69.76 47.80 C 67.18 48.30 64.60 48.82 62.02 49.35 C 61.95 46.61 61.49 43.88 60.39 41.36 Z" />
<path fill="#cfd8dc" opacity="1.00" d=" M 36.62 56.25 C 38.38 58.28 40.53 59.95 42.97 61.10 C 38.90 66.40 34.85 71.70 30.81 77.01 C 29.21 74.82 26.99 73.18 24.49 72.15 C 28.53 66.85 32.61 61.58 36.62 56.25 Z" />
<path fill="#cfd8dc" opacity="1.00" d=" M 52.16 61.40 C 54.65 60.41 56.91 58.91 58.77 56.99 C 61.23 60.67 63.71 64.34 66.17 68.03 C 63.57 68.85 61.23 70.37 59.52 72.51 C 57.10 68.79 54.64 65.09 52.16 61.40 Z" />
</g>
<g id="#3f51b5ff">
<path fill="#3f51b5" opacity="1.00" d=" M 44.01 34.54 C 46.65 34.06 49.35 34.07 51.99 34.55 C 55.52 35.67 58.54 38.16 60.39 41.36 C 61.49 43.88 61.95 46.61 62.02 49.35 C 61.55 52.10 60.47 54.77 58.77 56.99 C 56.91 58.91 54.65 60.41 52.16 61.40 C 49.16 62.23 45.91 62.11 42.97 61.10 C 40.53 59.95 38.38 58.28 36.62 56.25 C 34.23 52.71 33.46 48.21 34.49 44.06 C 35.49 41.53 36.98 39.20 38.89 37.26 C 40.45 36.11 42.17 35.16 44.01 34.54 Z" />
</g>
</svg>
